<svg xmlns="http://www.w3.org/2000/svg" width="29.462" height="28.029" viewBox="0 0 29.462 28.029">
  <g id="Search_results_for_Verified_-_Flaticon-2_1_" data-name="Search results for Verified - Flaticon-2 (1)" transform="translate(0 -83)">
    <g id="Group_10372" data-name="Group 10372" transform="translate(0 83)">
      <path id="Path_3315" data-name="Path 3315" d="M29.462,26.451l-3.335-3.7.522-4.957-4.877-1.032-2.488-4.322-4.553,2.035-4.553-2.035L7.69,16.759,2.813,17.791l.522,4.957L0,26.451l3.335,3.7-.522,4.957L7.69,36.144l2.488,4.322,4.553-2.035,4.553,2.035,2.488-4.322,4.877-1.032-.522-4.957Zm-8.555-3.225L13.512,31.51,8.374,26.372,9.6,25.15l3.845,3.845,6.176-6.92Z" transform="translate(0 -12.437)" fill="#121212"/>
    </g>
  </g>
</svg>
