<svg xmlns="http://www.w3.org/2000/svg" width="26.333" height="23.145" viewBox="0 0 26.333 23.145">
  <g id="Search_results_for_Calendar_-_Flaticon-2" data-name="Search results for Calendar - Flaticon-2" transform="translate(0 0)">
    <g id="Group_10379" data-name="Group 10379" transform="translate(0 0)">
      <path id="Path_3321" data-name="Path 3321" d="M.77,163.332H20.933a.773.773,0,0,0,.494-.179c.194-.162,4.611-3.962,4.881-12.166H4.653C4.385,158.434.317,161.934.275,161.969a.772.772,0,0,0,.5,1.363Z" transform="translate(0 -144.816)" fill="#121212"/>
      <path id="Path_3322" data-name="Path 3322" d="M111.858,32.531H108V31.76a.772.772,0,0,0-1.543,0v.772h-3.909V31.76a.772.772,0,0,0-1.543,0v.772H97.148V31.76a.772.772,0,1,0-1.543,0v.772H91.748a.764.764,0,0,0-.771.772v2.315H112.63V33.3A.764.764,0,0,0,111.858,32.531Z" transform="translate(-86.297 -30.988)" fill="#121212"/>
      <path id="Path_3323" data-name="Path 3323" d="M108.715,303.638a2.322,2.322,0,0,1-1.485.539H90.977v2.315a.771.771,0,0,0,.772.771h20.111a.771.771,0,0,0,.772-.771v-8.649A15.291,15.291,0,0,1,108.715,303.638Z" transform="translate(-86.298 -284.118)" fill="#121212"/>
    </g>
  </g>
</svg>
