<svg id="Search_results_for_Log_out_-_Flaticon-2_2_" data-name="Search results for Log out - Flaticon-2 (2)" xmlns="http://www.w3.org/2000/svg" width="24.989" height="27.961" viewBox="0 0 24.989 27.961">
  <path id="Path_3372" data-name="Path 3372" d="M39.5,23.507V24.9a2.983,2.983,0,0,1-1.525,2.641,2.982,2.982,0,0,1-3.049,0l-6.2-3.577A2.983,2.983,0,0,1,27.2,21.324V3.049A3.053,3.053,0,0,1,30.253,0H43.9a3.053,3.053,0,0,1,3.05,3.049V6.9a1,1,0,1,1-2,0V3.049A1.048,1.048,0,0,0,43.9,2H31.942l6.032,3.483A2.983,2.983,0,0,1,39.5,8.125v13.38h4.4a1.048,1.048,0,0,0,1.047-1.047V17.081a1,1,0,1,1,2,0v3.377a3.053,3.053,0,0,1-3.05,3.049Zm9.277-10.753-1.1,1.1a1,1,0,0,0,1.416,1.416L51.9,12.461a1,1,0,0,0,0-1.415L49.089,8.235A1,1,0,1,0,47.673,9.65l1.1,1.1H41.389a1,1,0,0,0,0,2h7.387Z" transform="translate(-27.204 0)" fill="#121212" fill-rule="evenodd"/>
</svg>
