<svg id="Search_results_for_Profile_-_Flaticon-2" data-name="Search results for Profile - Flaticon-2" xmlns="http://www.w3.org/2000/svg" width="22.79" height="25.461" viewBox="0 0 22.79 25.461">
  <g id="Group_10369" data-name="Group 10369" transform="translate(4.786)">
    <g id="Group_10368" data-name="Group 10368">
      <path id="Path_3310" data-name="Path 3310" d="M117.4,0a6.611,6.611,0,1,0,6.611,6.611A6.628,6.628,0,0,0,117.4,0Z" transform="translate(-110.791)" fill="#121212"/>
    </g>
  </g>
  <g id="Group_10371" data-name="Group 10371" transform="translate(0 13.694)">
    <g id="Group_10370" data-name="Group 10370" transform="translate(0)">
      <path id="Path_3311" data-name="Path 3311" d="M46.906,252.65a6.162,6.162,0,0,0-.664-1.212,8.217,8.217,0,0,0-5.687-3.58,1.217,1.217,0,0,0-.837.2,7.046,7.046,0,0,1-8.314,0,1.083,1.083,0,0,0-.837-.2,8.157,8.157,0,0,0-5.687,3.58,7.1,7.1,0,0,0-.664,1.212.614.614,0,0,0,.029.548,11.517,11.517,0,0,0,.779,1.155,10.971,10.971,0,0,0,1.328,1.5,17.308,17.308,0,0,0,1.328,1.155,13.164,13.164,0,0,0,15.7,0,12.7,12.7,0,0,0,1.328-1.155,13.331,13.331,0,0,0,1.328-1.5,10.127,10.127,0,0,0,.779-1.155A.493.493,0,0,0,46.906,252.65Z" transform="translate(-24.165 -247.841)" fill="#121212"/>
    </g>
  </g>
</svg>
