<svg id="Search_results_for_To_do_list_-_Flaticon-2" data-name="Search results for To do list - Flaticon-2" xmlns="http://www.w3.org/2000/svg" width="19.935" height="26.171" viewBox="0 0 19.935 26.171">
  <path id="Path_3324" data-name="Path 3324" d="M80.263,30.675A2.281,2.281,0,0,0,78.637,30H77.618v1.022a2.046,2.046,0,0,1-2.042,2.045h-9.19a2.046,2.046,0,0,1-2.042-2.045V30H63.32a2.3,2.3,0,0,0-2.3,2.3L61,52.335a2.3,2.3,0,0,0,2.3,2.3H78.615a2.3,2.3,0,0,0,2.3-2.3L80.935,32.3A2.286,2.286,0,0,0,80.263,30.675Zm-9.035,6.993h5.441a.767.767,0,0,1,0,1.533H71.228a.767.767,0,0,1,0-1.533Zm0,5.111h5.441a.767.767,0,0,1,0,1.533H71.228a.767.767,0,0,1,0-1.533Zm0,5.111h5.463a.767.767,0,0,1,0,1.533H71.228a.767.767,0,0,1,0-1.533ZM64.7,37.7a.765.765,0,0,1,1.083,0l.416.417,1.766-1.768a.766.766,0,0,1,1.083,1.084l-2.308,2.31a.765.765,0,0,1-1.083,0l-.958-.959A.767.767,0,0,1,64.7,37.7Zm0,5.5a.765.765,0,0,1,1.083,0l.416.417,1.766-1.768a.766.766,0,0,1,1.083,1.084l-2.308,2.31a.765.765,0,0,1-1.083,0l-.958-.959A.767.767,0,0,1,64.7,43.2Zm0,5.111a.765.765,0,0,1,1.083,0l.416.417,1.766-1.768a.766.766,0,1,1,1.083,1.084l-2.308,2.31a.765.765,0,0,1-1.083,0L64.7,49.4A.767.767,0,0,1,64.7,48.311Z" transform="translate(-61 -28.467)" fill="#121212"/>
  <path id="Path_3325" data-name="Path 3325" d="M156.361,2.556a.511.511,0,0,0,.511.511h9.19a.511.511,0,0,0,.511-.511V.511A.511.511,0,0,0,166.062,0h-9.19a.511.511,0,0,0-.511.511Z" transform="translate(-151.487)" fill="#121212"/>
</svg>
